<svg width="262" height="512" viewBox="0 0 262 512" fill="none" xmlns="http://www.w3.org/2000/svg">
<path d="M261.388 210.968C261.388 189.529 246.423 171.531 226.394 166.84C231.757 159.394 234.929 150.269 234.929 140.412C234.929 120.655 222.219 103.82 204.55 97.6256C206.792 93.2436 208.066 88.2866 208.066 83.0356C208.066 65.4636 193.898 51.1396 176.385 50.8876C174.019 50.6716 158.278 49.0516 142.646 43.0506C122.459 35.2986 112.223 24.1796 112.223 10.0026C112.223 1.98062 102.814 -2.84838 96.299 1.84162C95.696 2.27562 81.38 12.6506 69.528 27.9546C47.845 55.9516 51.607 80.4016 62.682 96.0006C42.036 100.229 26.459 118.536 26.459 140.413C26.459 150.27 29.631 159.395 34.994 166.841C14.965 171.533 0 189.53 0 210.969C0 231.148 13.257 248.283 31.516 254.14L121.226 505.328C122.655 509.329 126.445 511.999 130.694 511.999C134.943 511.999 138.733 509.329 140.162 505.327L229.872 254.139C248.131 248.282 261.388 231.147 261.388 210.968V210.968ZM85.189 40.5706C88.641 36.0746 92.405 32.0336 95.864 28.6596C100.983 40.6056 112.308 52.9376 135.438 61.8186C155.017 69.3366 174.327 70.8976 175.14 70.9606C175.398 70.9806 175.656 70.9896 175.914 70.9896C182.555 70.9896 187.958 76.3926 187.958 83.0336C187.958 89.6746 182.555 95.0776 175.914 95.0776H101.821C91.178 95.0776 81.517 89.5426 76.609 80.6316C70.461 69.4726 73.348 55.9926 85.189 40.5706V40.5706ZM71.791 115.187H189.598C203.507 115.187 214.823 126.503 214.823 140.412C214.823 154.321 203.507 165.637 189.598 165.637H71.791C57.882 165.637 46.566 154.321 46.566 140.412C46.566 126.503 57.882 115.187 71.791 115.187V115.187ZM130.694 472.056L53.639 256.299H207.75L130.694 472.056ZM216.056 236.192H45.332C31.423 236.192 20.107 224.876 20.107 210.967C20.107 197.058 31.423 185.742 45.332 185.742H216.056C229.965 185.742 241.281 197.058 241.281 210.967C241.281 224.876 229.965 236.192 216.056 236.192Z" fill="#F0981D"/>
<path d="M87.9529 290.65L101.361 328.193C102.829 332.305 106.7 334.868 110.829 334.868C111.951 334.868 113.092 334.679 114.21 334.279C119.439 332.412 122.164 326.659 120.297 321.431L106.889 283.888C105.022 278.659 99.2669 275.932 94.0399 277.802C88.8109 279.669 86.0859 285.421 87.9529 290.65Z" fill="#F0981D"/>
<path d="M126.002 377.231C131.525 377.231 136.002 372.753 136.002 367.231C136.002 361.708 131.525 357.231 126.002 357.231C120.479 357.231 116.002 361.708 116.002 367.231C116.002 372.753 120.479 377.231 126.002 377.231Z" fill="#F0981D"/>
</svg>
