<svg viewBox="0 0 116 25" fill="none" xmlns="http://www.w3.org/2000/svg">
<path d="M12.66 13.96C12.66 12.5734 12.96 11.34 13.56 10.26C14.16 9.1667 14.9933 8.32003 16.06 7.72003C17.14 7.1067 18.36 6.80003 19.72 6.80003C21.3867 6.80003 22.8133 7.24003 24 8.12003C25.1867 9.00003 25.98 10.2 26.38 11.72H22.62C22.34 11.1334 21.94 10.6867 21.42 10.38C20.9133 10.0734 20.3333 9.92003 19.68 9.92003C18.6267 9.92003 17.7733 10.2867 17.12 11.02C16.4667 11.7534 16.14 12.7334 16.14 13.96C16.14 15.1867 16.4667 16.1667 17.12 16.9C17.7733 17.6334 18.6267 18 19.68 18C20.3333 18 20.9133 17.8467 21.42 17.54C21.94 17.2334 22.34 16.7867 22.62 16.2H26.38C25.98 17.72 25.1867 18.92 24 19.8C22.8133 20.6667 21.3867 21.1 19.72 21.1C18.36 21.1 17.14 20.8 16.06 20.2C14.9933 19.5867 14.16 18.74 13.56 17.66C12.96 16.58 12.66 15.3467 12.66 13.96ZM32.0944 9.70003V12.54H36.6744V15.18H32.0944V18.26H37.2744V21H28.6744V6.96003H37.2744V9.70003H32.0944ZM43.553 13.96C43.553 12.5734 43.853 11.34 44.453 10.26C45.053 9.1667 45.8863 8.32003 46.953 7.72003C48.033 7.1067 49.253 6.80003 50.613 6.80003C52.2796 6.80003 53.7063 7.24003 54.893 8.12003C56.0796 9.00003 56.873 10.2 57.273 11.72H53.513C53.233 11.1334 52.833 10.6867 52.313 10.38C51.8063 10.0734 51.2263 9.92003 50.573 9.92003C49.5196 9.92003 48.6663 10.2867 48.013 11.02C47.3596 11.7534 47.033 12.7334 47.033 13.96C47.033 15.1867 47.3596 16.1667 48.013 16.9C48.6663 17.6334 49.5196 18 50.573 18C51.2263 18 51.8063 17.8467 52.313 17.54C52.833 17.2334 53.233 16.7867 53.513 16.2H57.273C56.873 17.72 56.0796 18.92 54.893 19.8C53.7063 20.6667 52.2796 21.1 50.613 21.1C49.253 21.1 48.033 20.8 46.953 20.2C45.8863 19.5867 45.053 18.74 44.453 17.66C43.853 16.58 43.553 15.3467 43.553 13.96ZM66.7273 21L63.8073 15.7H62.9873V21H59.5673V6.96003H65.3073C66.414 6.96003 67.354 7.15336 68.1273 7.54003C68.914 7.9267 69.5007 8.46003 69.8873 9.14003C70.274 9.8067 70.4673 10.5534 70.4673 11.38C70.4673 12.3134 70.2007 13.1467 69.6673 13.88C69.1473 14.6134 68.374 15.1334 67.3473 15.44L70.5873 21H66.7273ZM62.9873 13.28H65.1073C65.734 13.28 66.2007 13.1267 66.5073 12.82C66.8273 12.5134 66.9873 12.08 66.9873 11.52C66.9873 10.9867 66.8273 10.5667 66.5073 10.26C66.2007 9.95336 65.734 9.80003 65.1073 9.80003H62.9873V13.28ZM76.2342 9.70003V12.54H80.8142V15.18H76.2342V18.26H81.4142V21H72.8142V6.96003H81.4142V9.70003H76.2342ZM92.5745 18.52H87.3345L86.4945 21H82.9145L87.9945 6.96003H91.9545L97.0345 21H93.4145L92.5745 18.52ZM91.6945 15.88L89.9545 10.74L88.2345 15.88H91.6945ZM114.681 6.96003V21H111.261V12.58L108.121 21H105.361L102.201 12.56V21H98.7806V6.96003H102.821L106.761 16.68L110.661 6.96003H114.681Z" fill="#1C1C1C"/>
<path fill-rule="evenodd" clip-rule="evenodd" d="M5.0208 23L9 10H1L5.0208 23Z" fill="#1C1C1C"/>
<path fill-rule="evenodd" clip-rule="evenodd" d="M8.07179 2.09908C7.69403 0.878655 6.68744 0 5.49198 0C4.18892 0 3.10582 1.03742 2.8225 2.4263C2.79739 2.4263 2.77348 2.4166 2.74718 2.4166C1.22894 2.4166 0 3.82124 0 5.55431C0 7.08256 0.829654 8.35146 2.09685 8.63021L8.70659 8.78049C9.83272 8.32601 10.7317 6.82321 10.7317 5.381C10.7317 3.64551 9.56015 2.23966 8.07179 2.09908Z" fill="#F0981D"/>
</svg>
